<svg width="167" height="136" viewBox="0 0 167 136" fill="none" xmlns="http://www.w3.org/2000/svg">
<g clip-path="url(#clip0_895_6009)">
<path opacity="0.18" d="M24.898 57.5435C28.6494 53.2513 34.233 51.2476 37.954 46.9248C43.0025 41.0604 43.647 32.1893 47.6598 25.4642C50.4972 20.721 54.8972 17.2544 59.6782 14.9813C68.0435 11.0476 77.4486 10.5408 86.1347 13.5557C90.1435 14.9682 93.976 17.1274 98.1591 17.6836C105.421 18.6472 113.521 14.8083 119.729 18.9975C123.985 21.8663 125.586 27.5643 127.204 32.6973C129.366 39.5581 132.643 43.0181 135.827 53.063C137.305 57.7274 142.232 60.9312 142.059 65.8562C142.013 67.2139 141.62 68.6198 140.693 69.5351C139.95 70.2709 138.952 70.6125 137.99 70.9301C104.679 81.8689 69.959 86.9572 35.1551 86.0007C28.2846 85.8102 24.1542 84.5882 22.2004 77.4493C20.3075 70.5359 19.9589 63.1911 24.898 57.5435Z" fill="#00A94A"/>
<path d="M105.727 42.1356C105.877 41.599 106.25 41.1633 106.412 40.6311C106.546 40.1931 106.529 39.7201 106.637 39.2756C106.832 38.5665 107.274 37.9673 107.871 37.6047C108.466 37.2499 109.128 37.0462 109.807 37.0091C111.257 36.884 112.704 37.294 113.911 38.1719C115.114 39.0614 115.955 40.4172 116.258 41.9582C116.316 42.4447 116.409 42.9257 116.535 43.3969C116.691 43.8568 117.005 44.2926 117.445 44.4108L117.403 44.9583C117.803 45.0453 118.17 45.258 118.458 45.5697C118.747 45.8814 118.943 46.2781 119.024 46.7102C119.15 47.4394 118.927 48.219 119.142 48.9241C119.344 49.5811 119.875 50.076 119.952 50.7505C119.971 51.1664 119.894 51.5808 119.729 51.9571C119.415 52.8418 119.073 53.7133 118.704 54.5718C118.138 53.9148 117.549 53.2578 116.787 52.9031C116.329 52.6841 115.83 52.6097 115.368 52.4367C112.855 51.5082 111.673 48.2891 109.318 46.962C108.789 46.662 108.114 46.5634 107.616 46.224C107.241 45.9678 107.231 45.6174 107.008 45.2408C106.402 44.2334 105.34 43.5349 105.727 42.1356Z" fill="#3F3D56"/>
<path d="M107.156 48.3963C107.302 49.13 107.786 49.7278 108.295 50.2402C108.558 50.5052 108.848 50.7789 108.935 51.1578C108.95 51.2827 108.984 51.4041 109.036 51.5169C109.18 51.7359 109.503 51.7052 109.732 51.587C110.004 51.434 110.241 51.2169 110.426 50.9515C110.61 50.6862 110.737 50.3795 110.798 50.0541C110.914 49.4015 110.843 48.7263 110.595 48.1182C110.381 47.5566 110.059 47.0503 109.651 46.6329C109.242 46.2154 108.757 45.8962 108.226 45.6962C106.981 45.2955 106.993 47.5751 107.156 48.3963Z" fill="#3F3D56"/>
<path opacity="0.18" d="M166.984 80.8282C167.261 78.0208 163.921 76.5798 161.309 76.4857C155.853 76.2908 150.489 77.7996 145.106 78.7719C130.994 81.345 116.529 80.3573 102.3 81.9472C91.2623 83.1801 80.4337 85.9524 69.5604 88.3416C56.7922 91.1446 43.9389 93.4199 31.0531 95.5002C24.7501 96.5185 18.3761 97.8565 12.0265 98.4412C9.09791 98.7128 1.03165 98.2573 0.0223544 102.792C-0.218823 103.872 1.02354 104.579 2.0146 104.868C10.1984 107.264 18.3924 109.66 26.7403 111.3C32.1577 112.367 37.6541 113.118 42.8972 114.933C47.4836 116.523 51.8146 118.903 56.3869 120.526C64.1309 123.274 72.3796 123.784 80.5188 124.271C82.5455 124.393 84.5722 124.511 86.5685 124.15C89.1383 123.684 91.5217 122.44 93.8646 121.209L163.431 84.6758" fill="#1D2741"/>
<path d="M49.0461 51.5607L52.1531 44.0342C52.1531 44.0342 55.5194 42.2823 57.8481 43.7955C60.1768 45.3087 58.2048 50.4023 57.8481 52.0118C57.4914 53.6214 55.1951 54.2498 54.3216 53.5141C53.4481 52.7783 52.3051 54.9572 52.3051 54.9572L49.0461 51.5607Z" fill="url(#paint0_linear_895_6009)"/>
<path d="M161.556 82.0304L68.5307 117.784C64.5962 119.297 60.3019 119.316 56.3563 117.837L9.93072 100.423C9.58173 100.293 9.25608 100.099 8.96804 99.8493C8.36346 99.3207 7.97429 98.5576 7.88376 97.723C7.86746 97.5813 7.85934 97.4387 7.85944 97.2959C7.84591 96.5301 8.08215 95.7836 8.52679 95.187C8.97143 94.5905 9.59612 94.182 10.2915 94.033L14.655 93.041L61.6865 82.3348L112.93 70.6672L134.332 74.5104L149.953 77.3222L161.556 82.0304Z" fill="url(#paint1_linear_895_6009)"/>
<path d="M165.987 74.9484C165.987 76.5017 165.542 78.0169 164.713 79.2861C163.884 80.5553 162.712 81.5162 161.358 82.037L68.3322 117.791C64.3976 119.304 60.1034 119.322 56.1578 117.843L9.72812 100.423C9.37913 100.293 9.05348 100.099 8.76544 99.8493L7.68521 97.723L7.66089 97.6748V88.1226L61.4961 82.3326L134.133 74.5104L162.438 71.4665C163.068 71.3979 163.704 71.5316 164.264 71.851C164.825 72.1704 165.286 72.6612 165.589 73.2622" fill="#00A94A"/>
<path d="M165.987 74.9484C165.987 76.5017 165.542 78.0169 164.713 79.2861C163.884 80.5553 162.712 81.5162 161.358 82.037L68.3322 117.791C64.3976 119.304 60.1034 119.322 56.1578 117.843L9.72812 100.423C9.37913 100.293 9.05348 100.099 8.76544 99.8493L7.68521 97.723L7.66089 97.6748V88.1226L61.4961 82.3326L134.133 74.5104L162.438 71.4665C163.068 71.3979 163.704 71.5316 164.264 71.851C164.825 72.1704 165.286 72.6612 165.589 73.2622" fill="url(#paint2_linear_895_6009)"/>
<path d="M165.784 73.2688C165.44 74.3262 164.882 75.287 164.149 76.0809C163.417 76.8747 162.53 77.4814 161.552 77.8565L68.5267 113.613C64.5919 115.125 60.2977 115.142 56.3523 113.663L9.93076 96.2492C9.58187 96.1198 9.25622 95.9265 8.96808 95.6776L7.88785 93.5491L7.86353 93.5009V88.1226L61.6987 82.3326L134.332 74.5104L162.636 71.4665C163.267 71.3979 163.902 71.5316 164.463 71.851C165.023 72.1704 165.484 72.6612 165.788 73.2622" fill="url(#paint3_linear_895_6009)"/>
<path d="M164.199 71.725L68.5389 108.624C64.6043 110.137 60.3097 110.155 56.3645 108.674L9.93084 91.2607C6.98807 90.1658 7.25559 85.5671 10.3058 84.8707L108.42 61.4173C109.649 61.1227 110.92 61.0989 112.158 61.3472L161.688 70.8096C162.069 70.8819 164.566 71.5826 164.199 71.725Z" fill="#00A94A"/>
<path d="M107.916 52.3031C107.916 52.3031 103.743 57.6485 102.21 59.4004C100.129 61.7808 94.2739 59.4004 94.2739 59.4004L96.6512 64.6342L99.0002 64.9868L107.184 58.6362L107.916 52.3031Z" fill="url(#paint4_linear_895_6009)"/>
<path d="M93.1349 57.9508L92.9241 57.3332H93.9111V56.8887H94.7359V56.4551L96.1303 56.9215L98.2056 57.4646L98.7569 57.204L105.244 58.8814L105.145 59.2909L98.5461 62.337L95.7229 61.8356L93.1349 57.9508Z" fill="#00A94A"/>
<path d="M68.0767 53.5316C68.0767 53.5316 69.0698 47.4503 69.3292 45.4554C69.8014 41.7983 71.1127 40.5391 72.4828 40.3398C78.119 39.5252 79.6087 39.35 85.6563 40.2741C88.6335 40.7296 89.2618 53.1308 89.3814 56.6258C89.4006 57.2099 89.2465 57.7854 88.9416 58.2682L86.8318 59.8953L86.2076 65.6174L70.9648 66.4824L70.8209 60.0749L64.7996 59.9259L64.9799 54.9637L68.0767 53.5316Z" fill="#00A94A"/>
<path d="M70.823 60.0749L71.7066 46.3466C71.7066 46.3466 77.734 46.1539 77.7077 47.1634C77.6813 48.173 73.3138 57.4711 73.3138 57.4711L70.823 60.0749Z" fill="url(#paint5_linear_895_6009)"/>
<path d="M81.2301 39.626C81.5825 39.5674 81.9429 39.6359 82.2556 39.8209C82.2556 39.8209 81.5058 43.3597 78.717 44.724C75.9283 46.0883 75.4358 41.2859 75.4358 41.2859L81.2301 39.626Z" fill="url(#paint6_linear_895_6009)"/>
<path d="M63.391 54.4929C63.31 54.4854 63.2286 54.4997 63.1539 54.5345C62.9837 54.6374 63.0019 54.9265 63.1296 55.0864C63.2745 55.2281 63.4421 55.3402 63.6241 55.417C63.6618 55.4336 63.6959 55.4582 63.7245 55.4895C63.7531 55.5207 63.7754 55.5579 63.7903 55.5988C63.8004 55.6599 63.7919 55.7229 63.766 55.7784C63.5917 56.2338 63.083 56.3937 62.6452 56.5295C61.9815 56.7366 61.3386 57.0146 60.7259 57.3594C60.6503 57.3901 60.5881 57.4502 60.5516 57.5281C60.4908 57.7251 60.7543 57.8478 60.9408 57.8609C61.4056 57.8981 61.8723 57.8981 62.3372 57.8609C62.2156 57.9529 62.0757 58.0799 62.1081 58.2441C62.1406 58.4084 62.2824 58.4522 62.4122 58.4631C62.5433 58.4573 62.6744 58.4728 62.8013 58.5091C63.0039 58.5989 63.0972 58.8704 63.2836 59.0062C63.4696 59.1146 63.6856 59.1465 63.8916 59.096C64.2854 59.0457 64.6736 58.954 65.0509 58.8223C65.2726 58.7578 65.4796 58.6444 65.6589 58.4894C65.8588 58.2626 65.9988 57.9821 66.0643 57.677C66.2548 57.02 66.5 55.7061 65.969 55.1433C65.438 54.5805 64.0801 54.5126 63.391 54.4929Z" fill="url(#paint7_linear_895_6009)"/>
<path d="M52.303 54.9572L56.8266 62.8691C56.8266 62.8691 58.2797 65.6962 59.9903 65.313C61.7008 64.9298 63.3019 62.6151 63.3019 62.6151L65.5738 65.1378C65.5738 65.1378 61.9967 71.6636 58.0892 71.092C55.9146 70.7745 51.2532 65.8867 51.2532 65.8867L52.303 54.9572Z" fill="#00A94A"/>
<path d="M52.303 54.9572L56.8266 62.8691C56.8266 62.8691 58.2797 65.6962 59.9903 65.313C61.7008 64.9298 63.3019 62.6151 63.3019 62.6151L65.5738 65.1378C65.5738 65.1378 61.9967 71.6636 58.0892 71.092C55.9146 70.7745 51.2532 65.8867 51.2532 65.8867L52.303 54.9572Z" fill="url(#paint8_linear_895_6009)"/>
<path d="M13.7249 84.0385L102.997 64.4524L153.271 74.7535L73.2652 104.936L13.7249 84.0385Z" fill="url(#paint9_linear_895_6009)"/>
<path opacity="0.18" d="M62.0534 89.9359C62.9776 93.2732 66.3905 95.5638 69.5684 94.9725C71.6964 94.5805 73.4981 93.1177 75.3607 91.9352C79.9559 89.0348 85.2514 87.6928 90.5609 88.0832C93.7287 88.3263 97.0991 89.1497 99.9527 87.6453C101.931 86.6007 103.315 84.5795 105.145 83.2655C106.693 82.1487 108.507 81.5596 110.183 80.6903C112.794 79.3369 115.759 75.7828 119.954 72.4761C122.431 70.5249 126.733 68.7205 127.874 67.3475C125.526 66.6576 123.402 69.5767 119.954 69.9753C112.745 70.7877 103.23 70.2862 98.1813 70.9892C92.16 71.8257 86.1326 72.6644 80.1842 73.9696C67.4789 76.7551 55.0795 80.3968 42.285 82.7465C39.7435 83.2152 33.181 83.6225 31.5982 86.3532C29.2391 90.4373 36.7156 92.3491 39.1314 92.6688C41.0669 92.9184 62.5905 91.8739 62.0534 89.9359Z" fill="#1D2741"/>
<path d="M89.2659 79.2821C89.2659 79.2821 86.5481 79.3872 86.0475 80.123C85.5469 80.8588 86.5562 81.4654 86.5562 81.4654L91.9858 79.0741L89.2659 79.2821Z" fill="#25233A"/>
<path d="M87.5291 65.8867C87.5291 65.8867 88.9599 65.8035 89.6389 67.0101C90.3178 68.2167 90.3178 71.0898 90.3178 71.0898C90.3178 71.0898 89.1747 72.6337 87.904 72.1015C86.6333 71.5694 87.1643 68.554 87.1643 68.554L87.5291 65.8867Z" fill="#25233A"/>
<path d="M73.6462 76.4682L78.2305 73.7375L78.0846 68.6658C78.0846 68.6658 72.7301 70.8359 72.6409 71.1272C72.5517 71.4184 73.6462 76.4682 73.6462 76.4682Z" fill="url(#paint10_linear_895_6009)"/>
<path d="M70.7317 62.4926C70.7317 62.4926 66.8668 72.1805 68.0585 74.9485C68.7435 76.5383 70.4682 77.0223 71.8099 77.1383C72.2891 77.1833 72.7682 77.0509 73.1685 76.7628C73.5689 76.4747 73.8666 76.048 74.0129 75.5529C74.9675 72.3097 77.3002 66.0489 78.5689 76.8449C78.7716 78.6187 84.4038 77.7646 85.3219 76.8975C86.24 76.0303 88.3417 70.6629 88.3417 70.6629C88.3417 70.6629 87.8978 68.9877 87.0162 68.5541C87.0162 68.5541 88.1937 63.7911 86.3433 63.04C86.3373 63.0422 73.0867 66.9423 70.7317 62.4926Z" fill="#00A94A"/>
<path d="M70.7317 62.4926C70.7317 62.4926 66.8668 72.1805 68.0585 74.9485C68.7435 76.5383 70.4682 77.0223 71.8099 77.1383C72.2891 77.1833 72.7682 77.0509 73.1685 76.7628C73.5689 76.4747 73.8666 76.048 74.0129 75.5529C74.9675 72.3097 77.3002 66.0489 78.5689 76.8449C78.7716 78.6187 84.4038 77.7646 85.3219 76.8975C86.24 76.0303 88.3417 70.6629 88.3417 70.6629C88.3417 70.6629 87.8978 68.9877 87.0162 68.5541C87.0162 68.5541 88.1937 63.7911 86.3433 63.04C86.3373 63.0422 73.0867 66.9423 70.7317 62.4926Z" fill="url(#paint11_linear_895_6009)"/>
<path d="M50.7607 71.0898C50.7607 71.0898 67.554 76.0827 70.6609 77.6835C73.7678 79.2843 74.4569 79.4354 74.4569 79.4354L73.2652 83.1735L40.9556 79.5821L50.7607 71.0898Z" fill="#00A94A"/>
<path d="M50.7607 71.0898C50.7607 71.0898 67.554 76.0827 70.6609 77.6835C73.7678 79.2843 74.4569 79.4354 74.4569 79.4354L73.2652 83.1735L40.9556 79.5821L50.7607 71.0898Z" fill="url(#paint12_linear_895_6009)"/>
<path d="M73.7334 81.6932L67.4345 79.9786L64.0154 75.2266L50.167 79.9786L50.7831 80.9771L73.2653 83.1626L73.7334 81.6932Z" fill="url(#paint13_linear_895_6009)"/>
<path d="M29.7093 91.8738L41.7256 96.0543C41.8128 96.0875 41.9079 96.0875 41.9951 96.0543L42.0904 96.0149C42.1686 95.9822 42.2355 95.9242 42.2819 95.8487C42.3283 95.7733 42.3519 95.6841 42.3494 95.5936C42.347 95.503 42.3186 95.4155 42.2682 95.3431C42.2178 95.2707 42.1479 95.217 42.0681 95.1893L29.9565 91.0504C29.8713 91.0175 29.7782 91.0175 29.693 91.0504C29.6154 91.0829 29.5488 91.1404 29.5024 91.2152C29.4561 91.2899 29.4322 91.3783 29.4339 91.4683C29.4357 91.5583 29.4631 91.6455 29.5123 91.718C29.5616 91.7906 29.6304 91.845 29.7093 91.8738Z" fill="#25233A"/>
<path d="M122.589 66.7693L137.724 69.9271C138.115 70.0101 138.52 69.969 138.89 69.8089L140.106 69.2899C140.202 69.2499 140.284 69.1769 140.338 69.082C140.392 68.9872 140.417 68.8757 140.407 68.7646C140.397 68.6536 140.353 68.5491 140.283 68.4672C140.213 68.3852 140.12 68.3304 140.019 68.311L125.453 65.37C125.014 65.2805 124.561 65.3129 124.137 65.4642L122.55 66.0248C122.475 66.0509 122.41 66.1032 122.366 66.1735C122.321 66.2438 122.299 66.328 122.304 66.4131C122.308 66.4982 122.339 66.5793 122.39 66.6438C122.442 66.7082 122.512 66.7524 122.589 66.7693Z" fill="#00A94A"/>
<path d="M122.589 66.7693L137.724 69.9271C138.115 70.0101 138.52 69.969 138.89 69.8089L140.106 69.2899C140.202 69.2499 140.284 69.1769 140.338 69.082C140.392 68.9872 140.417 68.8757 140.407 68.7646C140.397 68.6536 140.353 68.5491 140.283 68.4672C140.213 68.3852 140.12 68.3304 140.019 68.311L125.453 65.37C125.014 65.2805 124.561 65.3129 124.137 65.4642L122.55 66.0248C122.475 66.0509 122.41 66.1032 122.366 66.1735C122.321 66.2438 122.299 66.328 122.304 66.4131C122.308 66.4982 122.339 66.5793 122.39 66.6438C122.442 66.7082 122.512 66.7524 122.589 66.7693Z" fill="url(#paint14_linear_895_6009)"/>
<path d="M122.589 66.0597L137.724 69.2197C138.115 69.3004 138.519 69.2594 138.89 69.1014L140.106 68.5825C140.202 68.5425 140.284 68.4695 140.338 68.3746C140.392 68.2798 140.416 68.1683 140.407 68.0572C140.397 67.9462 140.353 67.8417 140.283 67.7597C140.213 67.6778 140.12 67.623 140.019 67.6036L125.453 64.656C125.014 64.5669 124.562 64.5986 124.137 64.748L122.546 65.313C122.47 65.3388 122.405 65.3914 122.359 65.4623C122.314 65.5332 122.292 65.6184 122.297 65.7044C122.302 65.7903 122.334 65.8719 122.386 65.9363C122.439 66.0007 122.511 66.0442 122.589 66.0597Z" fill="#00A94A"/>
<path d="M67.9797 51.5301C67.9797 51.5301 68.3546 50.895 69.374 50.9563C70.3935 51.0176 72.2661 51.5476 72.2661 51.5476L65.7807 66.4649H62.6251C62.4963 66.4649 62.3696 66.4298 62.2567 66.3627C62.1439 66.2957 62.0485 66.1989 61.9795 66.0813C61.9106 65.9637 61.8703 65.8293 61.8623 65.6904C61.8543 65.5514 61.879 65.4126 61.934 65.2868L67.9797 51.5301Z" fill="#00A94A"/>
<path d="M67.9797 51.5301C67.9797 51.5301 68.3546 50.895 69.374 50.9563C70.3935 51.0176 72.2661 51.5476 72.2661 51.5476L65.7807 66.4649H62.6251C62.4963 66.4649 62.3696 66.4298 62.2567 66.3627C62.1439 66.2957 62.0485 66.1989 61.9795 66.0813C61.9106 65.9637 61.8703 65.8293 61.8623 65.6904C61.8543 65.5514 61.879 65.4126 61.934 65.2868L67.9797 51.5301Z" fill="url(#paint15_linear_895_6009)"/>
<path d="M68.6586 51.5301C68.6586 51.5301 69.0355 50.895 70.055 50.9563C70.7379 51.0258 71.4152 51.1487 72.0817 51.3242C72.1853 51.3496 72.2823 51.3998 72.3655 51.4711C72.4488 51.5424 72.5161 51.633 72.5626 51.7362C72.6091 51.8395 72.6336 51.9526 72.6342 52.0674C72.6348 52.1822 72.6115 52.2957 72.566 52.3994L66.719 65.8736C66.6423 66.0505 66.5206 66.2 66.368 66.3048C66.2154 66.4095 66.0384 66.465 65.8577 66.4649H63.302C63.1732 66.4652 63.0464 66.4301 62.9335 66.363C62.8206 66.296 62.7253 66.1991 62.6564 66.0814C62.5876 65.9637 62.5475 65.8291 62.5399 65.6901C62.5323 65.5512 62.5574 65.4124 62.6129 65.2868L68.6586 51.5301Z" fill="#00A94A"/>
<path d="M68.6586 51.5301C68.6586 51.5301 69.0355 50.895 70.055 50.9563C70.7379 51.0258 71.4152 51.1487 72.0817 51.3242C72.1853 51.3496 72.2823 51.3998 72.3655 51.4711C72.4488 51.5424 72.5161 51.633 72.5626 51.7362C72.6091 51.8395 72.6336 51.9526 72.6342 52.0674C72.6348 52.1822 72.6115 52.2957 72.566 52.3994L66.719 65.8736C66.6423 66.0505 66.5206 66.2 66.368 66.3048C66.2154 66.4095 66.0384 66.465 65.8577 66.4649H63.302C63.1732 66.4652 63.0464 66.4301 62.9335 66.363C62.8206 66.296 62.7253 66.1991 62.6564 66.0814C62.5876 65.9637 62.5475 65.8291 62.5399 65.6901C62.5323 65.5512 62.5574 65.4124 62.6129 65.2868L68.6586 51.5301Z" fill="url(#paint16_linear_895_6009)"/>
<path d="M36.4239 79.4748C36.4239 79.4748 33.5541 70.2489 41.4907 58.8682C44.4821 54.5761 46.8736 52.4103 48.6915 51.3767C50.6838 50.2446 53.0408 52.0008 52.8078 54.4206C52.2727 59.9763 51.2654 70.4679 51.2654 70.5533C51.2654 70.6387 39.2572 81.253 36.4239 79.4748Z" fill="#00A94A"/>
<path d="M45.8196 57.4712C45.8196 57.4712 39.549 68.8387 40.986 76.304C40.986 76.304 51.8511 71.668 51.2573 70.5468C50.6634 69.4256 50.7688 57.4646 50.7688 57.4646L45.8196 57.4712Z" fill="url(#paint17_linear_895_6009)"/>
<path d="M69.3294 84.7547C68.3083 85.3218 67.2158 85.7239 66.0867 85.9481C65.736 86.0182 65.3834 86.0708 65.0307 86.1058C62.2563 83.8084 59.6559 81.2754 57.2543 78.5311C52.224 82.3589 46.3405 85.7116 40.23 84.9671C39.4721 84.9104 38.7338 84.6813 38.0635 84.2948C37.6223 83.9902 37.2318 83.6074 36.9083 83.1626C36.3874 82.4684 35.976 81.6297 35.9314 80.9071C35.8361 79.3742 37.0238 78.8661 38.1871 78.1741C43.7721 74.854 49.6225 72.0843 55.6674 69.8986C56.9969 69.4169 58.4642 68.9658 59.7755 69.5067C61.0868 70.0476 61.8934 71.4228 62.6129 72.717L69.3294 84.7547Z" fill="#00A94A"/>
<path d="M69.3294 84.7547C68.3083 85.3218 67.2158 85.7239 66.0867 85.9481C65.736 86.0182 65.3834 86.0708 65.0307 86.1058C62.2563 83.8084 59.6559 81.2754 57.2543 78.5311C52.224 82.3589 46.3405 85.7116 40.23 84.9671C39.4721 84.9104 38.7338 84.6813 38.0635 84.2948C37.6223 83.9902 37.2318 83.6074 36.9083 83.1626C36.3874 82.4684 35.976 81.6297 35.9314 80.9071C35.8361 79.3742 37.0238 78.8661 38.1871 78.1741C43.7721 74.854 49.6225 72.0843 55.6674 69.8986C56.9969 69.4169 58.4642 68.9658 59.7755 69.5067C61.0868 70.0476 61.8934 71.4228 62.6129 72.717L69.3294 84.7547Z" fill="url(#paint18_linear_895_6009)"/>
<path d="M45.8196 57.4712C45.8196 57.4712 49.0461 68.0044 50.6674 69.4322C52.2888 70.86 61.4089 61.8093 61.4089 61.8093V58.3055L53.6143 61.9692C53.6143 61.9692 53.1988 53.2097 52.4205 52.6666C51.6423 52.1235 46.7904 51.517 45.8196 57.4712Z" fill="#00A94A"/>
<path d="M45.8196 57.4712C45.8196 57.4712 49.0461 68.0044 50.6674 69.4322C52.2888 70.86 61.4089 61.8093 61.4089 61.8093V58.3055L53.6143 61.9692C53.6143 61.9692 53.1988 53.2097 52.4205 52.6666C51.6423 52.1235 46.7904 51.517 45.8196 57.4712Z" fill="url(#paint19_linear_895_6009)"/>
<path d="M62.3635 57.6047C62.656 57.4889 62.9612 57.4153 63.2715 57.3857C63.9383 57.2938 64.2018 57.1033 64.8726 57.1295C65.6123 57.1295 65.057 57.7055 64.8442 57.7865C64.6233 57.8461 64.414 57.9477 64.2261 58.0865C63.9119 58.3756 63.9464 58.8924 63.8977 59.3347C63.8258 59.9803 63.5251 60.5706 63.0586 60.9814C62.5922 61.3923 61.9965 61.5917 61.3968 61.5377C61.3164 61.5395 61.2366 61.5222 61.163 61.487C61.0895 61.4518 61.024 61.3996 60.9712 61.3341C60.9169 61.2277 60.8909 61.1072 60.8962 60.9859C60.8699 60.3771 60.6611 59.4727 60.9611 58.9274C61.1658 58.5442 61.9177 57.6047 62.3635 57.6047Z" fill="url(#paint20_linear_895_6009)"/>
<path d="M50.2419 42.4838C49.816 42.8401 49.5273 43.3542 49.4313 43.9269C49.3383 44.493 49.2888 45.0665 49.2833 45.6415C49.2358 46.4799 49.1178 47.3118 48.9307 48.127C48.9866 48.0746 49.0594 48.0478 49.1333 48.0526C49.1641 48.2809 49.1736 48.512 49.1617 48.7424L49.4961 48.6832C49.4961 49.2482 49.4758 49.8132 49.4353 50.3782C50.2683 49.9139 50.8986 49.1256 51.5086 48.357C51.5455 48.3148 51.5763 48.2668 51.5998 48.2146C51.6228 48.1293 51.6276 48.0395 51.614 47.9518C51.5534 47.5484 51.6167 47.1346 51.7944 46.7737C51.9971 46.4321 52.4389 46.2306 52.7632 46.4299C53.1786 46.6861 53.1442 47.3277 53.2637 47.827C53.4682 47.385 53.6162 46.915 53.7035 46.4299C53.7221 46.2481 53.7744 46.0723 53.8576 45.9131C53.9521 45.7865 54.072 45.6846 54.2082 45.6153C55.0154 45.1508 55.9484 45.0089 56.8429 45.2145C57.3394 45.3328 57.84 45.5583 58.3406 45.4554C58.4512 45.4175 58.5681 45.4063 58.6831 45.4225C58.8858 45.4751 59.0358 45.7466 59.2385 45.6941C59.2923 45.6704 59.3408 45.6345 59.3807 45.5888C59.4205 45.543 59.4508 45.4886 59.4695 45.4291C59.6809 44.9304 59.7667 44.3803 59.7183 43.8343C59.6699 43.2883 59.489 42.7658 59.1939 42.3195C59.533 42.4158 59.8811 42.4709 60.2315 42.4838C58.825 40.3749 56.2896 39.1836 53.9184 39.6216C53.3898 39.6949 52.8867 39.9103 52.4551 40.2479C52.2217 40.4558 52.0296 40.7126 51.8903 41.0027C51.751 41.2928 51.6673 41.6104 51.6444 41.9363C51.5998 42.4115 51.5208 42.2713 51.1438 42.2297C50.8249 42.1975 50.5057 42.2875 50.2419 42.4838Z" fill="#3F3D56"/>
<path d="M52.1145 47.3212C52.1145 47.4767 52.151 47.63 52.1591 47.7855C52.1733 48.0592 52.1064 48.3636 52.2503 48.5913C52.3423 48.7116 52.4608 48.8049 52.5948 48.8629C52.6337 48.8906 52.6802 48.9029 52.7266 48.8979C52.7558 48.8871 52.782 48.8683 52.8026 48.8433C52.8232 48.8184 52.8375 48.7882 52.8441 48.7556C52.9015 48.541 52.9015 48.3132 52.8441 48.0986C52.7894 47.8911 52.7488 47.6796 52.7225 47.4657C52.7104 47.3103 52.7468 47.0847 52.6455 46.9511C52.4064 46.6402 52.1125 47.0475 52.1145 47.3212Z" fill="url(#paint21_linear_895_6009)"/>
<path d="M69.1105 57.6222C68.9707 57.4536 68.7579 57.274 68.5775 57.3857C68.3971 57.4974 68.4437 57.8237 68.5288 58.0427C68.614 58.2617 68.7173 58.5354 68.8126 58.7807C68.7104 58.5795 68.5814 58.3958 68.4295 58.2354C68.3838 58.1781 68.3218 58.1388 68.2532 58.1237C68.1998 58.1253 68.1486 58.1465 68.108 58.184C68.0674 58.2215 68.04 58.2728 68.0303 58.3296C68.0152 58.4444 68.0256 58.5615 68.0607 58.6712L68.2917 59.6347C68.1632 59.4279 67.99 59.258 67.7871 59.1398C67.7586 59.1161 67.7249 59.1009 67.6893 59.0959C67.6537 59.0909 67.6175 59.0963 67.5844 59.1113C67.5054 59.1639 67.5114 59.2887 67.5317 59.3873C67.6276 59.8518 67.7724 60.3029 67.9634 60.7318C67.8519 60.607 67.6898 60.4712 67.558 60.5545C67.4263 60.6377 67.4527 60.9114 67.5297 61.091L67.9755 62.1421C68.0095 62.259 68.0815 62.3586 68.1782 62.4224C68.3809 62.5078 68.5633 62.2779 68.6687 62.0786C69.009 61.4305 69.305 60.7564 69.5543 60.0617C69.6962 59.6719 69.8847 59.1617 69.7874 58.7478C69.6901 58.3339 69.3618 57.931 69.1105 57.6222Z" fill="url(#paint22_linear_895_6009)"/>
<path d="M73.4678 82.5297H75.0932L75.9343 79.9785L74.4568 79.4244L73.4678 82.5297Z" fill="url(#paint23_linear_895_6009)"/>
<path d="M78.3968 75.3338C78.561 75.0466 78.7775 74.7985 79.0332 74.6046C79.1619 74.51 79.3125 74.4564 79.4681 74.4498C79.6236 74.4432 79.7776 74.4839 79.9128 74.5674C80.0201 74.6646 80.1084 74.7841 80.1724 74.9187C80.2365 75.0533 80.275 75.2004 80.2857 75.3513C80.4093 76.19 80.2472 77.0441 80.0729 77.8719C79.7027 79.6427 79.2811 81.3997 78.8082 83.1428C78.8029 83.2115 78.7834 83.2781 78.7511 83.3375C78.7188 83.3969 78.6746 83.4478 78.6217 83.4863C78.5687 83.5247 78.5085 83.5499 78.4454 83.5598C78.3822 83.5697 78.3178 83.5642 78.257 83.5436C77.3092 83.4798 76.3732 83.2832 75.4723 82.9589C75.3378 82.928 75.2178 82.8466 75.1338 82.729C75.1012 82.6384 75.0875 82.5412 75.0938 82.4442C75.1001 82.3473 75.1262 82.2531 75.1703 82.1684C76.0479 79.7376 76.9801 77.4755 78.3968 75.3338Z" fill="#25233A"/>
<path d="M66.3337 85.8956L67.5903 87.0956L70.0771 86.1058L69.3272 84.7546L66.3337 85.8956Z" fill="url(#paint24_linear_895_6009)"/>
<path d="M67.5903 87.0978L68.9624 90.0584L76.2038 87.8314C76.2038 87.8314 76.5828 86.478 74.8986 86.3379C73.2144 86.1977 70.0771 86.1167 70.0771 86.1167L67.5903 87.0978Z" fill="#25233A"/>
<path d="M67.0615 85.4751L66.0907 85.9481C65.7401 86.0181 65.3875 86.0707 65.0348 86.1057C62.2604 83.8083 59.66 81.2754 57.2584 78.531C52.2281 82.3589 46.3446 85.7116 40.2341 84.967C39.4762 84.9104 38.7378 84.6813 38.0676 84.2947C37.6264 83.9901 37.2358 83.6074 36.9124 83.1626C38.177 83.9662 40.2746 83.1626 40.2746 83.1626C40.2746 83.1626 56.7456 73.9652 57.7043 73.7856C58.6629 73.606 67.0615 85.4751 67.0615 85.4751Z" fill="url(#paint25_linear_895_6009)"/>
<path d="M75.7094 39.8975C75.7094 39.8975 75.5635 42.9896 77.4564 43.7254C79.3493 44.4612 81.7267 39.8975 81.7267 39.8975C81.7267 39.8975 80.7842 39.6676 80.5309 38.3756C79.3007 32.152 77.1321 39.4333 75.7094 39.8975Z" fill="url(#paint26_linear_895_6009)"/>
<path d="M72.3064 36.8887C72.3064 36.8887 72.8232 42.5823 75.5492 43.3225C78.2751 44.0627 80.0079 38.4851 80.0079 38.4851C80.0079 38.4851 81.9556 32.717 78.9641 32.7039C75.9727 32.6907 71.3782 30.9629 72.3064 36.8887Z" fill="url(#paint27_linear_895_6009)"/>
<path d="M86.8339 59.8953L81.9941 61.6823C81.8423 61.7385 81.6815 61.761 81.5214 61.7484C81.3614 61.7358 81.2053 61.6884 81.0626 61.6091C80.9199 61.5297 80.7935 61.4201 80.6909 61.2866C80.5884 61.1532 80.5119 60.9988 80.466 60.8326L79.8377 58.5552C79.7741 58.3233 79.7878 58.0748 79.8763 57.8527C79.9648 57.6307 80.1225 57.4492 80.3221 57.3398L84.716 54.9572L83.9519 46.3467L70.8311 60.0749L70.8858 62.4838C70.8858 62.4838 71.5911 64.1962 75.4256 64.4546C79.2601 64.713 86.4995 63.0422 86.4995 63.0422L86.8339 59.8953Z" fill="url(#paint28_linear_895_6009)"/>
<path d="M80.3283 58.323C80.3283 58.323 79.1123 57.78 78.3948 58.0077C77.6774 58.2354 77.0937 58.4807 77.0937 58.4807C77.1041 58.5592 77.1303 58.6342 77.1706 58.7004C77.2109 58.7667 77.2642 58.8225 77.3268 58.8639C77.4808 58.9822 76.3904 59.3019 75.671 59.4815C75.5107 59.5231 75.372 59.6312 75.2848 59.7824C75.1976 59.9336 75.1689 60.1157 75.2048 60.2895C75.2771 60.6454 75.4503 60.968 75.7002 61.2125C75.9501 61.457 76.2643 61.6113 76.5992 61.6538C77.3381 61.7607 78.0831 61.8097 78.8286 61.8005C79.8419 61.7305 80.9829 60.1932 80.9829 60.1932C80.9829 60.1932 80.8512 58.5245 80.3283 58.323Z" fill="url(#paint29_linear_895_6009)"/>
<path d="M68.9624 34.0397C69.0273 34.0992 69.1042 34.1412 69.187 34.1626C69.2697 34.1839 69.356 34.1838 69.4387 34.1623C69.0788 33.4841 68.919 32.7033 68.9806 31.9243C69.1529 32.1301 69.4711 32.0754 69.6859 31.9243C69.9008 31.7732 70.0609 31.5433 70.2939 31.4075C70.4852 31.3049 70.6905 31.2362 70.902 31.2038C71.9634 30.9668 72.9874 30.5648 73.942 30.0104C74.5176 29.6753 75.0729 29.2833 75.6992 29.0731C77.1543 28.5891 78.8182 29.2395 79.8113 30.4878C79.9923 30.7391 80.1851 30.9803 80.3889 31.2104C80.5672 31.3662 80.7358 31.5344 80.8936 31.7141C81.2483 32.1783 81.2665 32.8397 81.2199 33.4397C81.0993 34.9638 80.6763 36.4419 79.9795 37.7734L80.0525 35.8025C80.0647 35.4544 80.0059 34.9967 79.6877 34.9266C79.4283 34.8697 79.2074 35.1456 79.0979 35.4018C78.9317 35.801 78.8733 36.2428 78.9297 36.6763C78.4879 36.4048 78.2183 35.9077 77.9022 35.4763C77.586 35.0449 77.1482 34.6375 76.6416 34.677C76.0761 34.7229 75.6931 35.2879 75.2472 35.669C74.7205 36.1116 74.0569 36.3192 73.3928 36.2493C73.2496 36.212 73.1002 36.212 72.957 36.2493C72.5801 36.4026 72.5659 36.7814 72.1281 36.7529C71.8727 36.7376 71.2181 36.2471 70.9769 36.096C70.1536 35.6082 69.4599 34.9002 68.9624 34.0397Z" fill="#3F3D56"/>
<path d="M112.938 72.2133C112.938 72.2133 109.88 74.563 105.145 73.2819C100.411 72.0008 98.0376 71.092 98.0376 71.092L92.8391 77.966L92.8128 77.9989L92.1825 77.7383L90.1416 76.8996C90.1416 76.8996 92.4075 68.0613 93.7491 66.4868C94.1545 66.0159 95.6907 63.9422 98.0984 64.6144C100.887 65.394 106.448 66.2634 110.277 67.181C113.698 67.9978 112.938 72.2133 112.938 72.2133Z" fill="#00A94A"/>
<path d="M112.938 72.2133C112.938 72.2133 109.88 74.563 105.145 73.2819C100.411 72.0008 98.0376 71.092 98.0376 71.092L92.8391 77.966L92.8128 77.9989L92.1825 77.7383L90.1416 76.8996C90.1416 76.8996 92.4075 68.0613 93.7491 66.4868C94.1545 66.0159 95.6907 63.9422 98.0984 64.6144C100.887 65.394 106.448 66.2634 110.277 67.181C113.698 67.9978 112.938 72.2133 112.938 72.2133Z" fill="url(#paint30_linear_895_6009)"/>
<path d="M105.644 69.8417L105.145 73.282C100.411 72.0009 98.0375 71.0921 98.0375 71.0921L92.839 77.9661L92.1824 77.7471L97.5187 68.1117L105.644 69.8417Z" fill="url(#paint31_linear_895_6009)"/>
<path d="M110.277 67.1787L87.136 80.6814C87.136 80.6814 88.5871 81.9318 88.9114 82.5297C89.2356 83.1275 90.705 83.5479 90.705 83.5479C90.705 83.5479 104.424 78.9492 105.857 77.5806C105.857 77.5806 109.302 77.1426 110.923 76.847C112.545 76.5514 114.353 74.725 115.258 72.2132C116.164 69.7015 115.791 66.7933 115.791 66.7933L110.285 67.1787H110.277Z" fill="#00A94A"/>
<path d="M110.277 67.1787L87.136 80.6814C87.136 80.6814 88.5871 81.9318 88.9114 82.5297C89.2356 83.1275 90.705 83.5479 90.705 83.5479C90.705 83.5479 104.424 78.9492 105.857 77.5806C105.857 77.5806 109.302 77.1426 110.923 76.847C112.545 76.5514 114.353 74.725 115.258 72.2132C116.164 69.7015 115.791 66.7933 115.791 66.7933L110.285 67.1787H110.277Z" fill="url(#paint32_linear_895_6009)"/>
<path d="M87.4704 80.9771L85.6099 81.9691L87.9041 84.4217L89.9673 83.2786L87.4704 80.9771Z" fill="url(#paint33_linear_895_6009)"/>
<path d="M86.0395 81.9691C86.0395 81.9691 83.4757 78.1959 82.6326 78.5638C81.7895 78.9317 81.5321 80.5347 81.5969 80.7537C81.6456 80.9114 83.8912 84.2925 85.0018 85.959C85.1668 86.207 85.4129 86.378 85.6902 86.4374C85.9676 86.4967 86.2554 86.44 86.4955 86.2787L87.6953 85.4772L88.2324 84.2443L86.0395 81.9691Z" fill="#25233A"/>
<path d="M90.3501 76.9828L89.7239 79.1705L92.1823 77.7361L90.3501 76.9828Z" fill="url(#paint34_linear_895_6009)"/>
<path d="M108.718 67.7219L105.996 66.259C105.996 66.259 109.409 62.4925 107.103 59.4048C107.103 59.4048 105.595 58.1303 105.863 56.6258C106.033 55.6732 107.137 53.6542 107.922 52.303C108.165 51.884 108.486 51.5236 108.864 51.2444C109.242 50.9652 109.669 50.7732 110.119 50.6804L114.914 49.6884C114.914 49.6884 116.866 49.9446 117.642 52.6031C118.418 55.2615 115.779 66.7934 115.779 66.7934L108.718 67.7219Z" fill="#00A94A"/>
<path d="M108.718 67.7219L105.996 66.259C105.996 66.259 109.409 62.4925 107.103 59.4048C107.103 59.4048 105.595 58.1303 105.863 56.6258C106.033 55.6732 107.137 53.6542 107.922 52.303C108.165 51.884 108.486 51.5236 108.864 51.2444C109.242 50.9652 109.669 50.7732 110.119 50.6804L114.914 49.6884C114.914 49.6884 116.866 49.9446 117.642 52.6031C118.418 55.2615 115.779 66.7934 115.779 66.7934L108.718 67.7219Z" fill="url(#paint35_linear_895_6009)"/>
<path d="M114.924 49.695C114.924 49.695 111.373 53.836 110.119 53.0236C109.954 52.9344 109.815 52.7984 109.716 52.6302C109.618 52.4619 109.563 52.2678 109.559 52.0688C109.559 51.3724 110.119 50.687 110.119 50.687C110.119 50.687 111.039 48.6854 109.438 48.9723H109.409C107.77 49.2855 107.216 44.9846 107.895 42.2889C108.574 39.5931 112.895 41.6823 113.013 42.6086C113.13 43.5349 114.924 49.695 114.924 49.695Z" fill="url(#paint36_linear_895_6009)"/>
<path d="M109.144 40.1953C109.612 40.3815 109.855 40.9202 110.114 41.38C110.773 42.5527 111.762 43.4656 112.938 43.9838C113.467 44.2159 114.083 44.3583 114.593 44.0823C114.279 43.466 114.079 42.7889 114.006 42.0896C113.987 41.6846 113.943 41.2814 113.874 40.8829C113.598 39.7114 112.573 38.9318 111.547 38.4544C110.98 38.1648 110.363 38.0067 109.735 37.9901C109.422 37.984 109.111 38.0506 108.823 38.1854C108.535 38.3203 108.278 38.5203 108.068 38.7719C107.829 39.1031 107.674 39.4954 107.618 39.9106C107.549 40.3486 107.437 41.3341 107.916 40.8873C108.315 40.5107 108.428 39.9106 109.144 40.1953Z" fill="#3F3D56"/>
<path d="M112.516 45.3853C112.703 45.1401 112.899 44.9057 113.104 44.678C113.181 44.5926 113.292 44.5028 113.39 44.5575C113.429 44.5852 113.459 44.6249 113.477 44.6714C113.549 44.8229 113.588 44.9902 113.592 45.1605C113.595 45.3309 113.562 45.4998 113.495 45.6543C113.429 45.8088 113.33 45.9448 113.208 46.0519C113.085 46.159 112.941 46.2344 112.788 46.2722C113.25 46.3642 112.07 48.7249 113.943 50.2884C115.694 51.749 116.728 50.4526 117.084 50.4811C117.141 49.5592 114.829 45.9459 114.796 45.0218C114.807 44.7356 114.751 44.451 114.634 44.194C114.399 43.7561 113.58 43.202 113.136 43.5787C112.739 43.9093 112.648 44.9014 112.516 45.3853Z" fill="#3F3D56"/>
<path d="M117.684 51.8695C117.569 51.6521 117.404 51.4706 117.204 51.3427C117.005 51.2147 116.778 51.1445 116.546 51.139C116.315 51.1335 116.085 51.1928 115.881 51.3112C115.677 51.4296 115.504 51.6031 115.38 51.8147C115.136 52.1952 114.969 52.6264 114.889 53.0809C114.808 53.5353 114.817 54.0029 114.914 54.4535C115.441 56.766 119.981 61.9363 119.981 61.9363L123.426 68.6657C123.426 68.6657 122.575 70.9322 123.933 69.1738C124.603 68.3088 126.19 68.1708 127.064 68.1642C127.269 68.1648 127.467 68.081 127.618 67.9297C127.768 67.7785 127.86 67.5711 127.875 67.3496C127.875 67.2182 127.85 67.1306 127.757 67.1306C127.443 67.1657 125.556 66.927 125.556 66.927L123.872 67.3518C123.872 67.3518 121.659 60.6749 121.553 60.5523C121.448 60.4297 119.441 55.1565 117.684 51.8695Z" fill="url(#paint37_linear_895_6009)"/>
<path d="M92.9241 57.9508L95.8466 62.3305L99.8473 62.8604C99.8473 62.8604 103.029 60.7604 103.672 60.4012C104.314 60.0421 105.644 59.3961 105.644 59.3961L99.2839 57.942L96.3532 61.529L95.7229 61.8268L93.1328 57.942L92.9241 57.9508Z" fill="#00A94A"/>
<path d="M92.9241 57.9508L95.8466 62.3305L99.8473 62.8604C99.8473 62.8604 103.029 60.7604 103.672 60.4012C104.314 60.0421 105.644 59.3961 105.644 59.3961L99.2839 57.942L96.3532 61.529L95.7229 61.8268L93.1328 57.942L92.9241 57.9508Z" fill="url(#paint38_linear_895_6009)"/>
<path d="M93.9111 56.8887L95.95 61.1545L96.0777 61.4677L96.3533 61.5356L94.736 56.8887H93.9111Z" fill="#00A94A"/>
<path d="M92.9241 57.3333L95.8466 61.6604H96.0452L93.9111 57.3333H92.9241Z" fill="#00A94A"/>
<path d="M94.7361 56.4551L96.3534 60.9093L98.2058 57.4646L94.7361 56.4551Z" fill="#00A94A"/>
<path d="M93.9111 56.8887L95.95 61.1545L96.0777 61.4677L96.3533 61.5356L94.736 56.8887H93.9111Z" fill="url(#paint39_linear_895_6009)"/>
<path d="M92.9241 57.3333L95.8466 61.6604H96.0452L93.9111 57.3333H92.9241Z" fill="url(#paint40_linear_895_6009)"/>
<path d="M94.7361 56.4551L96.3534 60.9093L98.2058 57.4646L94.7361 56.4551Z" fill="url(#paint41_linear_895_6009)"/>
<path d="M88.9114 82.5297C88.9114 82.5297 100.818 77.931 105.656 75.6755C106.574 75.2439 107.537 74.9315 108.524 74.7448C109.713 74.5258 111.396 74.0878 112.516 73.2644C114.409 71.8717 115.783 69.0511 115.783 69.0511C115.783 69.0511 115.834 75.3886 110.919 76.8471L105.853 77.5806C105.853 77.5806 104.085 78.6931 100.865 79.9041C97.6444 81.1151 90.7009 83.548 90.7009 83.548C90.7009 83.548 89.3268 83.0597 89.2316 82.9546C89.1363 82.8495 88.9114 82.5297 88.9114 82.5297Z" fill="url(#paint42_linear_895_6009)"/>
<path d="M109.559 52.0687C109.559 51.3724 110.119 50.6869 110.119 50.6869C110.119 50.6869 111.039 48.6854 109.438 48.9723C112.042 48.5102 111.726 46.662 112.34 48.3416C113.37 51.1578 109.683 52.0512 109.559 52.0687Z" fill="url(#paint43_linear_895_6009)"/>
</g>
<defs>
<linearGradient id="paint0_linear_895_6009" x1="49.0441" y1="49.0708" x2="58.9648" y2="49.0708" gradientUnits="userSpaceOnUse">
<stop stop-color="#ECC4D7"/>
<stop offset="0.42" stop-color="#EFD4D1"/>
<stop offset="1" stop-color="#F2EAC9"/>
</linearGradient>
<linearGradient id="paint1_linear_895_6009" x1="7.85944" y1="94.7995" x2="161.556" y2="94.7995" gradientUnits="userSpaceOnUse">
<stop stop-color="#68E1FD"/>
<stop offset="1" stop-color="#69B9EB"/>
</linearGradient>
<linearGradient id="paint2_linear_895_6009" x1="88.0641" y1="88.7183" x2="111.742" y2="134.46" gradientUnits="userSpaceOnUse">
<stop offset="0.01" stop-color="#3C3A52" stop-opacity="0"/>
<stop offset="0.86"/>
</linearGradient>
<linearGradient id="paint3_linear_895_6009" x1="84.6045" y1="71.1753" x2="93.5592" y2="113.394" gradientUnits="userSpaceOnUse">
<stop offset="0.01" stop-color="white" stop-opacity="0"/>
<stop offset="0.99" stop-color="white"/>
</linearGradient>
<linearGradient id="paint4_linear_895_6009" x1="101.217" y1="57.7515" x2="97.8545" y2="65.2801" gradientUnits="userSpaceOnUse">
<stop stop-color="#ECC4D7"/>
<stop offset="0.42" stop-color="#EFD4D1"/>
<stop offset="1" stop-color="#F2EAC9"/>
</linearGradient>
<linearGradient id="paint5_linear_895_6009" x1="72.8011" y1="53.0104" x2="68.5809" y2="53.4821" gradientUnits="userSpaceOnUse">
<stop offset="0.01" stop-color="white" stop-opacity="0"/>
<stop offset="0.33" stop-color="white" stop-opacity="0.36"/>
<stop offset="0.99" stop-color="white"/>
</linearGradient>
<linearGradient id="paint6_linear_895_6009" x1="77.1666" y1="41.5312" x2="92.258" y2="45.5131" gradientUnits="userSpaceOnUse">
<stop offset="0.01" stop-color="#3C3A52" stop-opacity="0"/>
<stop offset="1"/>
</linearGradient>
<linearGradient id="paint7_linear_895_6009" x1="63.537" y1="58.7785" x2="63.2745" y2="55.0386" gradientUnits="userSpaceOnUse">
<stop stop-color="#ECC4D7"/>
<stop offset="0.42" stop-color="#EFD4D1"/>
<stop offset="1" stop-color="#F2EAC9"/>
</linearGradient>
<linearGradient id="paint8_linear_895_6009" x1="54.4148" y1="62.1771" x2="79.9973" y2="79.7387" gradientUnits="userSpaceOnUse">
<stop offset="0.01" stop-color="#3C3A52" stop-opacity="0"/>
<stop offset="1"/>
</linearGradient>
<linearGradient id="paint9_linear_895_6009" x1="13.7249" y1="84.6955" x2="153.271" y2="84.6955" gradientUnits="userSpaceOnUse">
<stop offset="0.01" stop-color="#3C3A52" stop-opacity="0"/>
<stop offset="0.86"/>
</linearGradient>
<linearGradient id="paint10_linear_895_6009" x1="75.4074" y1="70.9213" x2="75.7101" y2="76.5842" gradientUnits="userSpaceOnUse">
<stop offset="0.01" stop-color="white" stop-opacity="0"/>
<stop offset="0.99" stop-color="white"/>
</linearGradient>
<linearGradient id="paint11_linear_895_6009" x1="78.0015" y1="60.7363" x2="78.1411" y2="76.7068" gradientUnits="userSpaceOnUse">
<stop offset="0.01" stop-color="white" stop-opacity="0"/>
<stop offset="0.33" stop-color="white" stop-opacity="0.36"/>
<stop offset="0.99" stop-color="white"/>
</linearGradient>
<linearGradient id="paint12_linear_895_6009" x1="40.9556" y1="77.1273" x2="74.4569" y2="77.1273" gradientUnits="userSpaceOnUse">
<stop offset="0.01" stop-color="white" stop-opacity="0"/>
<stop offset="0.99" stop-color="white"/>
</linearGradient>
<linearGradient id="paint13_linear_895_6009" x1="64.3438" y1="73.9586" x2="55.6904" y2="95.4223" gradientUnits="userSpaceOnUse">
<stop offset="0.01" stop-color="#3C3A52" stop-opacity="0"/>
<stop offset="0.86"/>
</linearGradient>
<linearGradient id="paint14_linear_895_6009" x1="122.299" y1="67.6453" x2="140.398" y2="67.6453" gradientUnits="userSpaceOnUse">
<stop offset="0.01" stop-color="#3C3A52" stop-opacity="0"/>
<stop offset="0.86"/>
</linearGradient>
<linearGradient id="paint15_linear_895_6009" x1="64.9356" y1="58.7084" x2="75.3447" y2="58.7084" gradientUnits="userSpaceOnUse">
<stop offset="0.01" stop-color="#3C3A52" stop-opacity="0"/>
<stop offset="1"/>
</linearGradient>
<linearGradient id="paint16_linear_895_6009" x1="65.2274" y1="56.1879" x2="73.2898" y2="64.0188" gradientUnits="userSpaceOnUse">
<stop offset="0.01" stop-color="#3C3A52" stop-opacity="0"/>
<stop offset="1"/>
</linearGradient>
<linearGradient id="paint17_linear_895_6009" x1="40.0172" y1="60.7954" x2="62.4999" y2="80.8213" gradientUnits="userSpaceOnUse">
<stop offset="0.01" stop-color="#3C3A52" stop-opacity="0"/>
<stop offset="1"/>
</linearGradient>
<linearGradient id="paint18_linear_895_6009" x1="35.9253" y1="77.6836" x2="69.3294" y2="77.6836" gradientUnits="userSpaceOnUse">
<stop offset="0.01" stop-color="white" stop-opacity="0"/>
<stop offset="0.99" stop-color="white"/>
</linearGradient>
<linearGradient id="paint19_linear_895_6009" x1="48.89" y1="61.3385" x2="71.5429" y2="57.4922" gradientUnits="userSpaceOnUse">
<stop offset="0.01" stop-color="#3C3A52" stop-opacity="0"/>
<stop offset="1"/>
</linearGradient>
<linearGradient id="paint20_linear_895_6009" x1="59.4208" y1="59.3303" x2="63.8653" y2="59.3303" gradientUnits="userSpaceOnUse">
<stop stop-color="#ECC4D7"/>
<stop offset="0.42" stop-color="#EFD4D1"/>
<stop offset="1" stop-color="#F2EAC9"/>
</linearGradient>
<linearGradient id="paint21_linear_895_6009" x1="52.6617" y1="48.241" x2="55.9179" y2="54.3698" gradientUnits="userSpaceOnUse">
<stop stop-color="#ECC4D7"/>
<stop offset="0.42" stop-color="#EFD4D1"/>
<stop offset="1" stop-color="#F2EAC9"/>
</linearGradient>
<linearGradient id="paint22_linear_895_6009" x1="67.4344" y1="59.8953" x2="69.8016" y2="59.8953" gradientUnits="userSpaceOnUse">
<stop stop-color="#ECC4D7"/>
<stop offset="0.42" stop-color="#EFD4D1"/>
<stop offset="1" stop-color="#F2EAC9"/>
</linearGradient>
<linearGradient id="paint23_linear_895_6009" x1="73.4678" y1="80.977" x2="75.9343" y2="80.977" gradientUnits="userSpaceOnUse">
<stop stop-color="#ECC4D7"/>
<stop offset="0.42" stop-color="#EFD4D1"/>
<stop offset="1" stop-color="#F2EAC9"/>
</linearGradient>
<linearGradient id="paint24_linear_895_6009" x1="66.3337" y1="85.9262" x2="70.0771" y2="85.9262" gradientUnits="userSpaceOnUse">
<stop stop-color="#ECC4D7"/>
<stop offset="0.42" stop-color="#EFD4D1"/>
<stop offset="1" stop-color="#F2EAC9"/>
</linearGradient>
<linearGradient id="paint25_linear_895_6009" x1="50.4507" y1="85.6678" x2="61.5486" y2="77.3125" gradientUnits="userSpaceOnUse">
<stop offset="0.01" stop-color="white" stop-opacity="0"/>
<stop offset="0.99" stop-color="white"/>
</linearGradient>
<linearGradient id="paint26_linear_895_6009" x1="78.9318" y1="37.8719" x2="78.377" y2="42.3689" gradientUnits="userSpaceOnUse">
<stop stop-color="#ECC4D7"/>
<stop offset="0.42" stop-color="#EFD4D1"/>
<stop offset="0.59" stop-color="#F0DACE"/>
<stop offset="1" stop-color="#F2EAC9"/>
</linearGradient>
<linearGradient id="paint27_linear_895_6009" x1="72.5783" y1="38.5459" x2="81.0975" y2="37.0105" gradientUnits="userSpaceOnUse">
<stop stop-color="#ECC4D7"/>
<stop offset="0.42" stop-color="#EFD4D1"/>
<stop offset="1" stop-color="#F2EAC9"/>
</linearGradient>
<linearGradient id="paint28_linear_895_6009" x1="75.1439" y1="50.6125" x2="101.687" y2="88.8486" gradientUnits="userSpaceOnUse">
<stop offset="0.01" stop-color="#3C3A52" stop-opacity="0"/>
<stop offset="1"/>
</linearGradient>
<linearGradient id="paint29_linear_895_6009" x1="75.1886" y1="59.88" x2="80.9829" y2="59.88" gradientUnits="userSpaceOnUse">
<stop stop-color="#ECC4D7"/>
<stop offset="0.42" stop-color="#EFD4D1"/>
<stop offset="1" stop-color="#F2EAC9"/>
</linearGradient>
<linearGradient id="paint30_linear_895_6009" x1="94.9388" y1="62.4071" x2="107.526" y2="80.1006" gradientUnits="userSpaceOnUse">
<stop offset="0.01" stop-color="#3C3A52" stop-opacity="0"/>
<stop offset="1"/>
</linearGradient>
<linearGradient id="paint31_linear_895_6009" x1="92.1824" y1="73.0301" x2="105.644" y2="73.0301" gradientUnits="userSpaceOnUse">
<stop offset="0.01" stop-color="#3C3A52" stop-opacity="0"/>
<stop offset="1"/>
</linearGradient>
<linearGradient id="paint32_linear_895_6009" x1="99.1482" y1="69.7234" x2="108.563" y2="83.7321" gradientUnits="userSpaceOnUse">
<stop offset="0.01" stop-color="#3C3A52" stop-opacity="0"/>
<stop offset="1"/>
</linearGradient>
<linearGradient id="paint33_linear_895_6009" x1="85.6099" y1="82.7005" x2="89.9673" y2="82.7005" gradientUnits="userSpaceOnUse">
<stop stop-color="#ECC4D7"/>
<stop offset="0.42" stop-color="#EFD4D1"/>
<stop offset="1" stop-color="#F2EAC9"/>
</linearGradient>
<linearGradient id="paint34_linear_895_6009" x1="89.7239" y1="78.0777" x2="92.1823" y2="78.0777" gradientUnits="userSpaceOnUse">
<stop stop-color="#ECC4D7"/>
<stop offset="0.42" stop-color="#EFD4D1"/>
<stop offset="1" stop-color="#F2EAC9"/>
</linearGradient>
<linearGradient id="paint35_linear_895_6009" x1="103.757" y1="55.3185" x2="148.073" y2="71.1395" gradientUnits="userSpaceOnUse">
<stop offset="0.01" stop-color="white" stop-opacity="0"/>
<stop offset="0.99" stop-color="white"/>
</linearGradient>
<linearGradient id="paint36_linear_895_6009" x1="107.612" y1="47.0474" x2="114.924" y2="47.0474" gradientUnits="userSpaceOnUse">
<stop stop-color="#ECC4D7"/>
<stop offset="0.42" stop-color="#EFD4D1"/>
<stop offset="1" stop-color="#F2EAC9"/>
</linearGradient>
<linearGradient id="paint37_linear_895_6009" x1="114.831" y1="60.491" x2="127.877" y2="60.491" gradientUnits="userSpaceOnUse">
<stop stop-color="#ECC4D7"/>
<stop offset="0.42" stop-color="#EFD4D1"/>
<stop offset="1" stop-color="#F2EAC9"/>
</linearGradient>
<linearGradient id="paint38_linear_895_6009" x1="96.5539" y1="59.9917" x2="112.807" y2="62.1097" gradientUnits="userSpaceOnUse">
<stop offset="0.01" stop-color="#3C3A52" stop-opacity="0"/>
<stop offset="1"/>
</linearGradient>
<linearGradient id="paint39_linear_895_6009" x1="93.9111" y1="59.2121" x2="96.3533" y2="59.2121" gradientUnits="userSpaceOnUse">
<stop offset="0.01" stop-color="white" stop-opacity="0"/>
<stop offset="0.99" stop-color="white"/>
</linearGradient>
<linearGradient id="paint40_linear_895_6009" x1="92.9241" y1="59.4968" x2="96.0452" y2="59.4968" gradientUnits="userSpaceOnUse">
<stop offset="0.01" stop-color="white" stop-opacity="0"/>
<stop offset="0.99" stop-color="white"/>
</linearGradient>
<linearGradient id="paint41_linear_895_6009" x1="94.7361" y1="58.6822" x2="98.2058" y2="58.6822" gradientUnits="userSpaceOnUse">
<stop offset="0.01" stop-color="white" stop-opacity="0"/>
<stop offset="0.99" stop-color="white"/>
</linearGradient>
<linearGradient id="paint42_linear_895_6009" x1="88.9114" y1="76.2996" x2="115.783" y2="76.2996" gradientUnits="userSpaceOnUse">
<stop offset="0.01" stop-color="#3C3A52" stop-opacity="0"/>
<stop offset="1"/>
</linearGradient>
<linearGradient id="paint43_linear_895_6009" x1="112.559" y1="48.7117" x2="113.041" y2="48.4426" gradientUnits="userSpaceOnUse">
<stop stop-color="#ECC4D7"/>
<stop offset="0.42" stop-color="#EFD4D1"/>
<stop offset="1" stop-color="#F2EAC9"/>
</linearGradient>
<clipPath id="clip0_895_6009">
<rect width="167" height="136" fill="white"/>
</clipPath>
</defs>
</svg>
