<svg width="55" height="40" viewBox="0 0 55 40" fill="none" xmlns="http://www.w3.org/2000/svg">
<path opacity="0.5" d="M12.2222 14.2857C10.5321 14.2857 9.16667 13.0089 9.16667 11.4286C9.16667 9.84821 10.5321 8.57143 12.2222 8.57143C13.9123 8.57143 15.2778 9.84821 15.2778 11.4286C15.2778 13.0089 13.9123 14.2857 12.2222 14.2857ZM19.0972 11.4286C19.0972 10.2411 20.1189 9.28571 21.3889 9.28571H42.7778C44.0477 9.28571 45.0694 10.2411 45.0694 11.4286C45.0694 12.6161 44.0477 13.5714 42.7778 13.5714H21.3889C20.1189 13.5714 19.0972 12.6161 19.0972 11.4286ZM19.0972 20C19.0972 18.8125 20.1189 17.8571 21.3889 17.8571H42.7778C44.0477 17.8571 45.0694 18.8125 45.0694 20C45.0694 21.1875 44.0477 22.1429 42.7778 22.1429H21.3889C20.1189 22.1429 19.0972 21.1875 19.0972 20ZM19.0972 28.5714C19.0972 27.3839 20.1189 26.4286 21.3889 26.4286H42.7778C44.0477 26.4286 45.0694 27.3839 45.0694 28.5714C45.0694 29.7589 44.0477 30.7143 42.7778 30.7143H21.3889C20.1189 30.7143 19.0972 29.7589 19.0972 28.5714ZM12.2222 17.1429C13.9123 17.1429 15.2778 18.4196 15.2778 20C15.2778 21.5804 13.9123 22.8571 12.2222 22.8571C10.5321 22.8571 9.16667 21.5804 9.16667 20C9.16667 18.4196 10.5321 17.1429 12.2222 17.1429ZM12.2222 31.4286C10.5321 31.4286 9.16667 30.1518 9.16667 28.5714C9.16667 26.9911 10.5321 25.7143 12.2222 25.7143C13.9123 25.7143 15.2778 26.9911 15.2778 28.5714C15.2778 30.1518 13.9123 31.4286 12.2222 31.4286ZM0 5.71429C0 2.55804 2.73568 0 6.11111 0H48.8889C52.2595 0 55 2.55804 55 5.71429V34.2857C55 37.4375 52.2595 40 48.8889 40H6.11111C2.73568 40 0 37.4375 0 34.2857V5.71429ZM4.58333 5.71429V34.2857C4.58333 35.0714 5.26701 35.7143 6.11111 35.7143H48.8889C49.7292 35.7143 50.4167 35.0714 50.4167 34.2857V5.71429C50.4167 4.925 49.7292 4.28571 48.8889 4.28571H6.11111C5.26701 4.28571 4.58333 4.925 4.58333 5.71429Z" fill="white"/>
</svg>
