<svg width="24" height="24" viewBox="0 0 24 24" fill="none" xmlns="http://www.w3.org/2000/svg">
<path d="M4 10V7C4 5.89543 4.89543 5 6 5H10" stroke="#808080" stroke-width="2"/>
<path d="M14 5L18 5C19.1046 5 20 5.89543 20 7L20 10" stroke="#808080" stroke-width="2"/>
<path d="M20 14L20 17C20 18.1046 19.1046 19 18 19L14 19" stroke="#808080" stroke-width="2"/>
<path d="M10 19L6 19C4.89543 19 4 18.1046 4 17L4 14" stroke="#808080" stroke-width="2"/>
<path d="M12 8L12 16" stroke="#808080" stroke-width="2" stroke-linecap="round"/>
<path d="M16 8L16 16" stroke="#808080" stroke-width="2" stroke-linecap="round"/>
<path d="M8 8L8 16" stroke="#808080" stroke-width="2" stroke-linecap="round"/>
</svg>
