<svg width="24" height="24" viewBox="0 0 24 24" fill="none" xmlns="http://www.w3.org/2000/svg">
<circle cx="12" cy="13" r="3" stroke="#00A94A" stroke-width="2"/>
<path d="M2 18V9C2 7.89543 2.89543 7 4 7H5.92963C6.59834 7 7.2228 6.6658 7.59373 6.1094L8.40627 4.8906C8.7772 4.3342 9.40166 4 10.0704 4H13.9296C14.5983 4 15.2228 4.3342 15.5937 4.8906L16.4063 6.1094C16.7772 6.6658 17.4017 7 18.0704 7H20C21.1046 7 22 7.89543 22 9V18C22 19.1046 21.1046 20 20 20H4C2.89543 20 2 19.1046 2 18Z" stroke="#00A94A" stroke-width="2"/>
</svg>
