<svg width="40" height="36" viewBox="0 0 40 36" fill="none" xmlns="http://www.w3.org/2000/svg">
<g opacity="0.5" clip-path="url(#clip0_143_1377)">
<path d="M26.2578 12.3047C25.5254 11.6455 24.3391 11.6455 23.6063 12.3047L20 15.6164L16.2578 12.3047C15.5254 11.6455 14.3391 11.6455 13.6063 12.3047C12.8734 12.9639 12.8738 14.0316 13.6063 14.6911L17.2805 17.9979L13.6719 21.3047C12.9395 21.9639 12.9395 23.0316 13.6719 23.6911C14.4041 24.3501 15.5906 24.3507 16.3234 23.6911L20 20.3836L23.6742 23.6904C24.4065 24.3494 25.593 24.35 26.3258 23.6904C27.0582 23.0312 27.0582 21.9635 26.3258 21.304L22.6516 17.9972L26.3258 14.6904C27.0547 14.0344 27.0547 12.9656 26.2578 12.3047ZM20 0C8.95312 0 0 8.05781 0 18C0 27.9422 8.95312 36 20 36C31.0469 36 40 27.9422 40 18C40 8.05781 31.0469 0 20 0ZM20 32.625C11.0391 32.625 3.75 26.0641 3.75 18C3.75 9.93586 11.0391 3.375 20 3.375C28.9609 3.375 36.25 9.93586 36.25 18C36.25 26.0641 28.9609 32.625 20 32.625Z" fill="white"/>
</g>
<defs>
<clipPath id="clip0_143_1377">
<rect width="40" height="36" fill="white"/>
</clipPath>
</defs>
</svg>
