<svg width="40" height="36" viewBox="0 0 40 36" fill="none" xmlns="http://www.w3.org/2000/svg">
<g opacity="0.5" clip-path="url(#clip0_143_1362)">
<path d="M21.8906 10.5609C21.3359 10.1109 20.4766 9.99844 19.8672 10.2727C19.2578 10.5469 18.6797 11.1445 18.6797 11.7492L18.6798 15.6867L11.875 15.75C10.8438 15.75 10 16.5094 10 17.4375V18.5625C10 19.4977 10.8438 20.25 11.875 20.25L18.75 20.1867V24.1242C18.75 24.7944 19.1919 25.4011 19.8734 25.6711C20.557 25.9391 21.3508 25.8183 21.8977 25.3635L29.3977 19.1232C29.7813 18.8648 30 18.4148 30 17.9437C29.9756 17.3966 29.7754 17.0121 29.3872 16.6957L21.8906 10.5609ZM20 0C8.95313 0 0 8.05781 0 18C0 27.9422 8.95313 36 20 36C31.0469 36 40 27.9422 40 18C40 8.05781 31.0469 0 20 0ZM20 32.625C11.0391 32.625 3.75 26.0641 3.75 18C3.75 9.93586 11.0391 3.375 20 3.375C28.9609 3.375 36.25 9.93586 36.25 18C36.25 26.0641 28.9609 32.625 20 32.625Z" fill="white"/>
</g>
<defs>
<clipPath id="clip0_143_1362">
<rect width="40" height="36" fill="white"/>
</clipPath>
</defs>
</svg>
