<svg width="40" height="36" viewBox="0 0 40 36" fill="none" xmlns="http://www.w3.org/2000/svg">
<path opacity="0.5" d="M20 0C8.95312 0 0 8.05781 0 18C0 27.9422 8.95312 36 20 36C31.0469 36 40 27.9422 40 18C40 8.05781 31.0469 0 20 0ZM20 9C21.3805 9 22.5 10.0076 22.5 11.25C22.5 12.4924 21.3805 13.5 20 13.5C18.6195 13.5 17.5 12.4945 17.5 11.25C17.5 10.0055 18.6172 9 20 9ZM23.125 27H16.875C15.8438 27 15 26.2477 15 25.3125C15 24.3773 15.8398 23.625 16.875 23.625H18.125V19.125H17.5C16.4648 19.125 15.625 18.3691 15.625 17.4375C15.625 16.5059 16.4688 15.75 17.5 15.75H20C21.0352 15.75 21.875 16.5059 21.875 17.4375V23.625H23.125C24.1602 23.625 25 24.3809 25 25.3125C25 26.2441 24.1641 27 23.125 27Z" fill="white"/>
</svg>
