<svg width="24" height="24" viewBox="0 0 24 24" fill="none" xmlns="http://www.w3.org/2000/svg">
<path d="M2.95972 7.76538V15.7714C2.95972 16.5251 3.38335 17.2147 4.05556 17.5554L7.82962 19.4682C8.47728 19.7964 9.25198 19.7479 9.85359 19.3413L13.6783 16.7567C14.3548 16.2995 15.2414 16.2995 15.9179 16.7567L17.5975 17.8917C18.9257 18.7893 20.7173 17.8377 20.7173 16.2346V9.06231C20.7173 8.39805 20.3875 7.77713 19.8371 7.4052L15.9179 4.75674C15.2414 4.29955 14.3548 4.29955 13.6783 4.75674L9.99873 7.24326C9.32218 7.70045 8.43564 7.70045 7.75909 7.24326L6.07954 6.10827C4.7513 5.21069 2.95972 6.1623 2.95972 7.76538Z" stroke="#808080" stroke-width="2"/>
<path d="M8.87891 8V20" stroke="#808080" stroke-width="2"/>
<path d="M14.7981 4V16" stroke="#808080" stroke-width="2"/>
</svg>
