<svg width="24" height="24" viewBox="0 0 24 24" fill="none" xmlns="http://www.w3.org/2000/svg">
<path d="M3 7.73703V15.7639C3 16.5215 3.428 17.214 4.10557 17.5528L7.96189 19.4809C8.60383 19.8019 9.36854 19.7543 9.96571 19.3562L13.8906 16.7396C14.5624 16.2917 15.4376 16.2917 16.1094 16.7396L17.8906 17.9271C19.2197 18.8131 21 17.8604 21 16.263V9.07037C21 8.40166 20.6658 7.7772 20.1094 7.40627L16.1094 4.7396C15.4376 4.29173 14.5624 4.29173 13.8906 4.7396L10.1094 7.2604C9.4376 7.70827 8.5624 7.70827 7.8906 7.2604L6.1094 6.07293C4.78029 5.18686 3 6.13964 3 7.73703Z" stroke="#00A94A" stroke-width="2"/>
<path d="M9 8V20" stroke="#00A94A" stroke-width="2"/>
<path d="M15 4V16" stroke="#00A94A" stroke-width="2"/>
</svg>
