<svg width="20" height="20" viewBox="0 0 20 20" fill="none" xmlns="http://www.w3.org/2000/svg">
<g clip-path="url(#clip0_270_5696)">
<path d="M19.9688 15.1172L19.0605 19.0547C18.933 19.6113 18.4438 20.0007 17.8707 20.0007C8.01563 20 0 11.9843 0 2.12889C0 1.55623 0.389414 1.06639 0.946094 0.939438L4.88359 0.0312358C5.45703 -0.101655 6.04297 0.196001 6.28125 0.739048L8.09844 4.97732C8.31086 5.47654 8.16758 6.05818 7.74766 6.40115L5.64453 8.08982C6.97188 10.7937 9.17031 12.9922 11.875 14.3203L13.5969 12.2187C13.9363 11.7976 14.5223 11.6519 15.0215 11.8681L19.2598 13.6849C19.7695 13.9531 20.1016 14.5468 19.9688 15.1172Z" fill="#00A94A"/>
</g>
<defs>
<clipPath id="clip0_270_5696">
<rect width="20" height="20" fill="white"/>
</clipPath>
</defs>
</svg>
