<svg width="24" height="24" viewBox="0 0 24 24" fill="none" xmlns="http://www.w3.org/2000/svg">
<path d="M15.2243 19.3318C15.0776 19.4418 14.964 19.5901 14.8959 19.7604L14.2514 21.3714C14.0996 21.751 13.7319 22 13.323 22H10.677C10.2681 22 9.90042 21.751 9.74856 21.3714L9.10414 19.7604C9.03603 19.5901 8.92239 19.4418 8.77567 19.3318L7.41916 18.3144C7.15665 18.1175 6.81424 18.0619 6.50293 18.1657L4.82279 18.7257C4.35068 18.8831 3.83469 18.6694 3.61213 18.2243L2.41413 15.8283C2.18045 15.3609 2.34599 14.7924 2.79407 14.5236L4.0145 13.7913C4.3157 13.6106 4.5 13.2851 4.5 12.9338V11.4806C4.5 11.1768 4.36191 10.8895 4.1247 10.6998L2.63127 9.50501C2.26306 9.21045 2.15066 8.69869 2.36153 8.27693L3.61213 5.77573C3.83469 5.33062 4.35068 5.11689 4.82279 5.27426L6.60704 5.86901C6.85865 5.95288 7.13327 5.93337 7.37048 5.81476L8.62952 5.18524C8.86673 5.06663 9.04712 4.85865 9.13099 4.60704L9.77208 2.68377C9.90819 2.27543 10.2903 2 10.7208 2H13.2792C13.7097 2 14.0918 2.27543 14.2279 2.68377L14.869 4.60704C14.9529 4.85865 15.1333 5.06663 15.3705 5.18524L16.6295 5.81476C16.8667 5.93337 17.1414 5.95288 17.393 5.86901L19.1772 5.27426C19.6493 5.11689 20.1653 5.33062 20.3879 5.77573L21.6385 8.27693C21.8493 8.69869 21.7369 9.21045 21.3687 9.50501L19.8753 10.6998C19.6381 10.8895 19.5 11.1768 19.5 11.4806V12.5194C19.5 12.8232 19.6381 13.1105 19.8753 13.3002L21.3687 14.495C21.7369 14.7896 21.8493 15.3013 21.6385 15.7231L20.3879 18.2243C20.1653 18.6694 19.6493 18.8831 19.1772 18.7257L17.4971 18.1657C17.1858 18.0619 16.8434 18.1175 16.5808 18.3144L15.2243 19.3318Z" stroke="black" stroke-width="2"/>
<path d="M12 15C13.6569 15 15 13.6569 15 12C15 10.3431 13.6569 9 12 9C10.3431 9 9 10.3431 9 12C9 13.6569 10.3431 15 12 15Z" fill="black"/>
</svg>
