<svg width="24" height="24" viewBox="0 0 24 24" fill="none" xmlns="http://www.w3.org/2000/svg">
<path d="M3 11C3 9.89543 3.89543 9 5 9H9V17H5C3.89543 17 3 16.1046 3 15V11Z" stroke="#00A94A" stroke-width="2"/>
<path d="M15 9H19C20.1046 9 21 9.89543 21 11V15C21 16.1046 20.1046 17 19 17H15V9Z" stroke="#00A94A" stroke-width="2"/>
<rect x="14" y="23" width="4" height="3" rx="1.5" transform="rotate(180 14 23)" stroke="#00A94A" stroke-width="2"/>
<path d="M14 22H18C19.1046 22 20 21.1046 20 20V16" stroke="#00A94A" stroke-width="2"/>
<path d="M4 10V5C4 2.79086 5.79086 1 8 1H16C18.2091 1 20 2.79086 20 5V10" stroke="#00A94A" stroke-width="2"/>
</svg>
