<svg width="40" height="36" viewBox="0 0 40 36" fill="none" xmlns="http://www.w3.org/2000/svg">
<path opacity="0.5" d="M40 3.6C40 4.52115 39.721 5.44275 39.1629 6.14475L16.3058 34.9447C15.75 35.6512 15.0179 36 14.2857 36C13.5536 36 12.8232 35.6484 12.2661 34.9453L0.8375 20.5453C0.279464 19.845 0 18.9225 0 18C0 15.9435 1.33482 14.4 2.85714 14.4C3.58821 14.4 4.31964 14.7516 4.87679 15.4547L14.2857 27.315L35.125 1.0575C35.6786 0.352125 36.4107 0 37.1429 0C38.6696 0 40 1.54125 40 3.6Z" fill="white"/>
</svg>
