<svg width="24" height="24" viewBox="0 0 24 24" fill="none" xmlns="http://www.w3.org/2000/svg">
<path d="M10.569 4.46546C11.3538 3.66182 12.6462 3.66182 13.431 4.46546L14.0192 5.06787C14.4013 5.45921 14.927 5.67698 15.474 5.67046L16.3159 5.66043C17.439 5.64706 18.3529 6.56097 18.3396 7.68411L18.3295 8.52603C18.323 9.07295 18.5408 9.59868 18.9321 9.98081L19.5345 10.569C20.3382 11.3538 20.3382 12.6462 19.5345 13.431L18.9321 14.0192C18.5408 14.4013 18.323 14.927 18.3295 15.474L18.3396 16.3159C18.3529 17.439 17.439 18.3529 16.3159 18.3396L15.474 18.3295C14.927 18.323 14.4013 18.5408 14.0192 18.9321L13.431 19.5345C12.6462 20.3382 11.3538 20.3382 10.569 19.5345L9.98081 18.9321C9.59868 18.5408 9.07295 18.323 8.52603 18.3295L7.68411 18.3396C6.56097 18.3529 5.64706 17.439 5.66043 16.3159L5.67046 15.474C5.67698 14.927 5.45921 14.4013 5.06787 14.0192L4.46546 13.431C3.66182 12.6462 3.66182 11.3538 4.46546 10.569L5.06787 9.98081C5.45921 9.59868 5.67698 9.07295 5.67046 8.52603L5.66043 7.68411C5.64706 6.56097 6.56097 5.64706 7.68411 5.66043L8.52603 5.67046C9.07295 5.67698 9.59868 5.45921 9.98081 5.06787L10.569 4.46546Z" stroke="#00A94A" stroke-width="2"/>
<path d="M9 12L11 14L15 10" stroke="#00A94A" stroke-width="2" stroke-linecap="round"/>
</svg>
