<svg width="21" height="21" viewBox="0 0 21 21" fill="none" xmlns="http://www.w3.org/2000/svg">
<path d="M15.5388 12.0669C15.4979 12.0472 13.967 11.2934 13.6949 11.1955C13.5838 11.1556 13.4649 11.1166 13.3383 11.1166C13.1316 11.1166 12.9579 11.2197 12.8227 11.422C12.6697 11.6493 12.2068 12.1905 12.0637 12.3522C12.045 12.3735 12.0195 12.399 12.0043 12.399C11.9906 12.399 11.7536 12.3014 11.6819 12.2703C10.0396 11.5569 8.79305 9.84136 8.62211 9.55206C8.59771 9.51047 8.59668 9.49159 8.59648 9.49159C8.60248 9.46956 8.65771 9.4142 8.68621 9.38563C8.76959 9.30313 8.85993 9.19438 8.94734 9.08918C8.98873 9.03934 9.03018 8.98943 9.07089 8.94238C9.19771 8.79484 9.25416 8.68029 9.31961 8.54761L9.35391 8.47868C9.51373 8.16115 9.37723 7.8932 9.33311 7.80668C9.29691 7.73427 8.65048 6.17413 8.58175 6.01022C8.41648 5.6147 8.19809 5.43054 7.89461 5.43054C7.86646 5.43054 7.89461 5.43054 7.77652 5.43552C7.63273 5.44159 6.84966 5.54468 6.50343 5.76293C6.13627 5.99441 5.51514 6.73227 5.51514 8.02991C5.51514 9.19779 6.25627 10.3005 6.57448 10.7199C6.58239 10.7305 6.59691 10.7519 6.61798 10.7827C7.83659 12.5624 9.35575 13.8813 10.8958 14.4965C12.3784 15.0888 13.0805 15.1572 13.4796 15.1572H13.4797C13.6474 15.1572 13.7816 15.1441 13.9001 15.1324L13.9752 15.1252C14.4874 15.0798 15.6129 14.4966 15.869 13.7851C16.0706 13.2247 16.1238 12.6125 15.9896 12.3903C15.8977 12.2392 15.7393 12.1632 15.5388 12.0669Z" fill="white" stroke="white" stroke-width="0.207792"/>
<path d="M10.6864 0C4.99894 0 0.371848 4.59232 0.371848 10.237C0.371848 12.0627 0.860439 13.8498 1.78601 15.4139L0.0144387 20.6397C-0.0185613 20.7372 0.00598416 20.8449 0.0780523 20.9183C0.130075 20.9714 0.200643 21 0.272711 21C0.300325 21 0.328143 20.9958 0.35528 20.9872L5.80437 19.2556C7.29551 20.0523 8.98083 20.4729 10.6865 20.4729C16.3734 20.473 21 15.8811 21 10.237C21 4.59232 16.3734 0 10.6864 0ZM10.6864 18.3405C9.08146 18.3405 7.52698 17.8771 6.19076 17.0003C6.14583 16.9707 6.09367 16.9556 6.04117 16.9556C6.01342 16.9556 5.9856 16.9598 5.95853 16.9684L3.22887 17.8361L4.11005 15.2364C4.13855 15.1523 4.1243 15.0595 4.0718 14.9877C3.05426 13.5974 2.51637 11.9547 2.51637 10.237C2.51637 5.76818 6.18142 2.13245 10.6863 2.13245C15.1907 2.13245 18.8553 5.76818 18.8553 10.237C18.8554 14.7053 15.1908 18.3405 10.6864 18.3405Z" fill="white" stroke="white" stroke-width="0.207792"/>
</svg>
